<svg xmlns="http://www.w3.org/2000/svg" width="1600" height="520" viewBox="0 0 1600 520" role="img" aria-label="Grace and Praise Bangladeshi Church">
  <defs>
    <radialGradient id="halo" cx="50%" cy="35%" r="70%">
      <stop offset="0%" stop-color="#ffffff" stop-opacity="0.95"/>
      <stop offset="35%" stop-color="#ffd37a" stop-opacity="0.45"/>
      <stop offset="70%" stop-color="#8a5cff" stop-opacity="0.18"/>
      <stop offset="100%" stop-color="#05020a" stop-opacity="0"/>
    </radialGradient>

    <linearGradient id="space" x1="0" y1="0" x2="1" y2="1">
      <stop offset="0%" stop-color="#05020a"/>
      <stop offset="55%" stop-color="#0b1230"/>
      <stop offset="100%" stop-color="#12051e"/>
    </linearGradient>

    <filter id="softGlow" x="-30%" y="-30%" width="160%" height="160%">
      <feGaussianBlur stdDeviation="10" result="blur"/>
      <feMerge>
        <feMergeNode in="blur"/>
        <feMergeNode in="SourceGraphic"/>
      </feMerge>
    </filter>

    <filter id="glass" x="-20%" y="-20%" width="140%" height="140%">
      <feGaussianBlur stdDeviation="6" result="b"/>
      <feColorMatrix in="b" type="matrix"
        values="1 0 0 0 0
                0 1 0 0 0
                0 0 1 0 0
                0 0 0 0.35 0" result="shadow"/>
      <feMerge>
        <feMergeNode in="shadow"/>
        <feMergeNode in="SourceGraphic"/>
      </feMerge>
    </filter>

    <style>
      .title { font: 700 56px/1.1 system-ui, -apple-system, Segoe UI, Roboto, Arial, sans-serif; letter-spacing: 0.5px; }
      .sub   { font: 500 22px/1.4 system-ui, -apple-system, Segoe UI, Roboto, Arial, sans-serif; opacity: 0.92; }
      .tag   { font: 600 18px/1 system-ui, -apple-system, Segoe UI, Roboto, Arial, sans-serif; opacity: 0.9; }
      .small { font: 500 16px/1.4 system-ui, -apple-system, Segoe UI, Roboto, Arial, sans-serif; opacity: 0.88; }
    </style>
  </defs>

  <!-- Background -->
  <rect width="1600" height="520" fill="url(#space)"/>
  <rect width="1600" height="520" fill="url(#halo)"/>

  <!-- Stars -->
  <g fill="#ffffff" opacity="0.9">
    <circle cx="120" cy="90" r="1.5"/>
    <circle cx="210" cy="160" r="1.1"/>
    <circle cx="340" cy="70" r="1.3"/>
    <circle cx="520" cy="120" r="1.6"/>
    <circle cx="660" cy="85" r="1.2"/>
    <circle cx="820" cy="140" r="1.4"/>
    <circle cx="980" cy="95" r="1.1"/>
    <circle cx="1120" cy="60" r="1.5"/>
    <circle cx="1290" cy="130" r="1.2"/>
    <circle cx="1450" cy="80" r="1.4"/>
    <circle cx="1520" cy="170" r="1.1"/>
    <circle cx="390" cy="210" r="1.0" opacity="0.75"/>
    <circle cx="740" cy="220" r="1.0" opacity="0.75"/>
    <circle cx="1180" cy="210" r="1.0" opacity="0.75"/>
  </g>

  <!-- Glass panel -->
  <g filter="url(#glass)">
    <rect x="140" y="140" width="1320" height="260" rx="28" fill="#ffffff" opacity="0.08" stroke="#ffffff" stroke-opacity="0.18"/>
    <rect x="140" y="140" width="1320" height="260" rx="28" fill="none" stroke="#ffd37a" stroke-opacity="0.18"/>
  </g>

  <!-- Trinity symbol (3 orbit rings) -->
  <g transform="translate(280 270)" filter="url(#softGlow)">
    <circle cx="0" cy="0" r="62" fill="none" stroke="#ffd37a" stroke-opacity="0.55" stroke-width="3"/>
    <ellipse cx="0" cy="0" rx="88" ry="44" fill="none" stroke="#8a5cff" stroke-opacity="0.45" stroke-width="3"/>
    <ellipse cx="0" cy="0" rx="44" ry="88" fill="none" stroke="#7affd6" stroke-opacity="0.35" stroke-width="3"/>
    <!-- center flame -->
    <path d="M0,-28 C14,-10 18,6 8,18 C2,26 -6,26 -10,18 C-18,6 -12,-12 0,-28 Z"
          fill="#ffd37a" opacity="0.85"/>
    <path d="M0,-18 C8,-6 10,4 4,10 C1,14 -3,14 -5,10 C-10,4 -6,-8 0,-18 Z"
          fill="#ffffff" opacity="0.55"/>
  </g>

  <!-- Text -->
  <g fill="#ffffff">
    <text x="420" y="230" class="tag" opacity="0.9">A Spiritual Hearth on Earth • A Window Toward Heaven</text>
    <text x="420" y="300" class="title">Grace and Praise Bangladeshi Church</text>
    <text x="420" y="352" class="sub">Rooted in Prayer • Shaped by the Word • Empowered by the Spirit</text>
    <text x="420" y="392" class="small">gracepraise.church  •  admin@gracepraise.church</text>
  </g>
</svg>
